<svg width="26" height="30" viewBox="0 0 26 30" fill="none" xmlns="http://www.w3.org/2000/svg">
<path d="M9.98944 6.14571L9.97524 6.14571L9.97524 6.43455L9.98944 6.43437L9.98944 6.14571ZM17.9009 25.7121C17.8504 25.6791 17.8 25.6461 17.7495 25.6132C17.398 25.9131 17.0518 26.2163 16.6937 26.5118C16.3194 26.8212 15.9306 27.1206 15.5549 27.4289C15.2135 27.709 14.7274 27.894 14.4963 28.3298C15.3997 27.9906 16.7214 26.8683 17.9009 25.7121ZM19.7858 24.0896C19.1667 24.3341 18.8275 24.7664 18.439 25.1651C18.483 25.1938 18.5271 25.2222 18.5705 25.2508C18.9707 24.8602 19.3715 24.4697 19.7717 24.0792C20.7447 23.642 21.3837 22.996 21.7393 22.1652C21.6008 22.1978 21.5592 22.299 21.4764 22.3741C20.9354 22.8682 20.382 23.3542 19.8451 23.8506C19.7858 23.9052 19.804 24.0088 19.7858 24.0896ZM2.2367 18.8014C2.20759 18.665 2.17825 18.5284 2.12573 18.2834C2.59542 18.7686 2.95603 19.1408 3.31658 19.5132C3.3441 19.5416 3.36311 19.584 3.39979 19.597C4.35455 19.9328 4.7259 20.6803 5.34641 21.2456C6.14437 21.9727 6.82216 22.7766 7.59307 23.5223C8.43687 24.3387 9.32767 25.1267 10.2739 25.997C10.2487 25.6167 10.0055 25.4448 9.75588 25.2637C9.59585 25.1472 9.40008 25.0045 9.36317 24.8533C9.21623 24.2488 8.68216 23.8197 8.24087 23.3593C7.54677 22.635 6.75362 21.9668 6.05541 21.2446C5.68865 20.8652 5.42892 20.4239 5.1355 20.0048C5.08556 19.9335 5.07271 19.8231 5.10528 19.7464C5.21461 19.4881 5.06972 19.2663 4.99108 19.0286C4.92096 18.8161 4.91726 18.5909 4.88452 18.3712C4.93287 18.3588 4.98146 18.3463 5.03005 18.334C5.22376 18.5832 5.41747 18.8325 5.61142 19.0816C5.90254 19.4558 6.1611 19.8301 6.59042 20.1495C7.18 20.5881 7.63984 21.1291 8.15443 21.6267C8.39151 21.8558 8.62642 22.0861 8.94049 22.3922C8.94049 22.1961 8.95193 22.0983 8.9389 22.0024C8.67846 20.1204 8.43435 18.2371 7.95069 16.3777C7.84271 15.9628 7.78538 15.537 7.7531 15.114C7.6277 13.471 7.53785 11.8265 7.40282 10.1839C7.32577 9.24892 7.17819 8.31727 7.07825 7.38319C6.95561 6.23717 6.84146 5.09044 6.74106 3.94322C6.70708 3.55553 6.76166 3.16241 6.71031 2.77666C6.65462 2.35913 6.91018 2.11578 7.34367 1.93262C7.44296 1.89068 7.54378 1.85099 7.71091 1.78303C7.85028 2.31873 7.98325 2.83074 8.11617 3.3427C8.1627 3.34077 8.20924 3.33902 8.25577 3.33726C8.28899 2.76682 8.3188 2.1962 8.35665 1.62589C8.3766 1.32738 8.38646 1.02663 8.44374 0.731811C8.53886 0.245645 8.55377 0.247218 9.18578 4.01523e-07C9.70289 0.60928 9.34645 1.3481 9.69074 2.09857C9.89819 1.82465 9.84249 1.61815 9.83216 1.43117C9.82025 1.21047 9.93005 1.03611 10.0373 0.839823C10.1343 0.661781 10.0577 0.428092 10.0577 0.268299C10.3913 0.388222 10.7331 0.511112 11.1081 0.646138C11.1714 0.216159 11.5365 0.287808 11.9078 0.326419L11.9078 0.0667498C12.502 0.0377579 12.7448 0.392448 13.0531 0.657556C13.2479 0.825259 13.3068 1.05544 13.669 1.14709C13.8593 1.19519 13.9393 1.49913 14.1529 1.80955C14.1933 1.14673 13.9377 0.615438 14.037 0.0602315C14.096 0.217732 14.177 0.372581 14.2105 0.533228C14.3109 1.01944 14.4076 1.49594 14.8871 1.8789C15.0066 1.9746 15.0006 2.1779 15.0141 2.33365C15.1702 4.09879 15.2959 5.86563 15.4793 7.62919C15.5705 8.50848 15.7504 9.38287 15.9134 10.2571C16.3178 12.4281 16.6559 14.6045 16.8335 16.794C16.9021 17.6408 16.9468 18.4889 16.9984 19.3364C17.0312 19.8751 17.2049 20.4195 16.7565 20.9902C17.1997 20.943 17.3687 20.7677 17.5036 20.6049C17.7378 20.3235 17.9197 20.0169 18.1245 19.7211C18.1785 19.643 18.2266 19.562 18.2912 19.4888C18.7377 18.9777 19.1591 18.4508 19.6491 17.9649C19.9419 17.6747 20.3445 17.4498 20.7676 17.2175C20.6778 17.3762 20.588 17.5351 20.4917 17.7058C21.2887 17.605 21.2887 17.605 21.5122 17.3565C21.6607 17.5792 21.7945 17.7807 21.9289 17.9814C21.9817 17.9647 22.1384 17.875 22.2012 17.904C22.3226 17.9607 22.3913 18.0841 22.5374 18.2378C22.8214 18.0761 23.1043 17.9154 23.4382 17.7253C23.5057 18.045 23.5855 18.3356 23.3766 18.6299C23.102 19.0163 22.8402 19.4084 22.5668 19.7957C22.1519 20.385 21.7341 20.973 21.3133 21.5599C21.1819 21.7435 21.0381 21.9216 20.8708 22.1406C21.1836 22.1906 21.3315 22.0539 21.4764 21.9394C21.8784 21.6223 22.2704 21.2977 22.6654 20.9758C22.7446 20.9112 22.8578 20.8558 22.8954 20.7791C23.197 20.1588 23.9235 19.8782 24.5626 19.5232C24.7926 19.3954 25.059 19.2574 25.1799 19.0743C25.356 18.8067 25.6899 18.7972 25.9932 18.5952C26.0361 19.0379 25.8694 19.3534 25.6564 19.6612C25.1823 20.3449 24.6394 21.0071 24.2533 21.7189C23.741 22.6621 23.0544 23.5045 22.2006 24.2804C20.8339 25.5227 19.4971 26.7847 18.1133 28.0157C17.5289 28.5361 16.8585 29.0009 16.2219 29.4871C16.125 29.5612 16.0028 29.6167 15.8896 29.6776C15.0366 30.1374 14.3441 30.1104 13.4363 29.5642C13.5088 29.4479 13.5986 29.3286 13.6583 29.2009C13.7073 29.0957 13.7206 28.9809 13.7591 28.8339C13.6287 28.8657 13.5313 28.8667 13.5102 28.898C13.1798 29.3873 12.519 29.5032 11.9361 29.6709C11.6852 29.7429 11.3403 29.6214 10.9164 29.5743C10.3633 29.7919 9.2623 29.5201 8.71467 28.9508C8.22186 28.4382 7.73773 27.9199 7.22038 27.4221C6.72017 26.9406 6.18105 26.4891 5.71705 25.9779C5.23732 25.4498 4.609 24.9977 4.10492 24.4674C3.25196 23.5704 2.31093 22.7225 1.44789 21.8307C1.13569 21.5081 0.922031 21.1259 0.698568 20.7584C0.476454 20.3927 0.297412 20.0115 0.101177 19.6366C-0.0725823 19.3039 -0.0352013 19.1241 0.312552 18.9441C0.554618 18.819 0.831719 18.7289 1.10383 18.6434C1.37823 18.557 1.68426 18.878 1.95702 18.6161C2.00472 18.722 1.98818 18.8887 2.24286 18.7977C1.97122 19.1613 2.42853 19.3446 2.60622 19.597C2.48311 19.3318 2.35975 19.0667 2.2367 18.8014Z" fill="black"/>
</svg>
