<svg width="34" height="31" viewBox="0 0 34 31" fill="none" xmlns="http://www.w3.org/2000/svg">
<path d="M27.9548 9.8047C27.6021 9.6833 27.2366 9.56843 26.8603 9.4598C26.9222 9.20737 26.9789 8.95821 27.0294 8.71329C27.8579 4.69159 27.3162 1.45167 25.4664 0.384956C23.6927 -0.637885 20.792 0.428591 17.8623 2.97816C17.5806 3.22332 17.2981 3.48289 17.0157 3.75493C16.8276 3.57494 16.6397 3.40101 16.4524 3.23464C13.382 0.508477 10.3045 -0.640366 8.45652 0.429438C6.6845 1.45524 6.15974 4.50107 6.90552 8.31247C6.97754 8.68061 7.06172 9.05656 7.15692 9.4388C6.72136 9.56244 6.30087 9.69425 5.89854 9.83448C2.2989 11.0895 0 13.0564 0 15.0965C0 17.2036 2.46787 19.3171 6.21717 20.5986C6.51305 20.6997 6.82007 20.7954 7.13646 20.8861C7.03376 21.2995 6.94444 21.7047 6.86945 22.0998C6.15835 25.845 6.71368 28.8189 8.48097 29.8382C10.3064 30.8909 13.37 29.8089 16.3532 27.2012C16.589 26.9951 16.8256 26.7765 17.0627 26.5474C17.37 26.8433 17.6767 27.1233 17.9819 27.3859C20.8714 29.8725 23.7254 30.8766 25.491 29.8544C27.3146 28.7987 27.9073 25.6041 27.1379 21.7172C27.0791 21.4204 27.0107 21.1171 26.9339 20.8085C27.1491 20.7449 27.3603 20.6792 27.5662 20.611C31.464 19.3195 34 17.2318 34 15.0965C34 13.049 31.627 11.0688 27.9548 9.8047ZM27.1094 19.2323C26.9235 19.2938 26.7328 19.3533 26.5384 19.411C26.1081 18.0487 25.5273 16.6002 24.8166 15.1036C25.4948 13.6427 26.0531 12.2127 26.4714 10.8593C26.8192 10.9599 27.1568 11.0661 27.482 11.1781C30.6283 12.2612 32.5475 13.8626 32.5475 15.0965C32.5475 16.4109 30.4749 18.1171 27.1094 19.2323ZM25.713 21.9993C26.0532 23.718 26.1018 25.2719 25.8765 26.4867C25.674 27.5782 25.2667 28.3059 24.7632 28.5974C23.6917 29.2176 21.4003 28.4114 18.9291 26.2849C18.6458 26.0411 18.3605 25.7808 18.0742 25.5053C19.0322 24.4576 19.9897 23.2395 20.9242 21.8867C22.5679 21.7409 24.1207 21.5024 25.529 21.1769C25.5983 21.4566 25.6599 21.731 25.713 21.9993ZM11.5914 28.4902C10.5445 28.8599 9.71072 28.8705 9.20672 28.5799C8.13425 27.9614 7.6884 25.5736 8.29656 22.3707C8.36622 22.0039 8.44913 21.6271 8.54469 21.2419C9.93749 21.5499 11.479 21.7715 13.1266 21.9051C14.0673 23.2288 15.0525 24.4456 16.0452 25.511C15.8283 25.7204 15.6123 25.9197 15.3974 26.1076C14.0783 27.2607 12.7564 28.0788 11.5914 28.4902ZM6.68693 19.2242C5.02905 18.6576 3.65992 17.9211 2.72144 17.1175C1.87816 16.3953 1.45241 15.6783 1.45241 15.0965C1.45241 13.8585 3.29819 12.2793 6.37664 11.206C6.75017 11.0758 7.14118 10.9531 7.54697 10.8378C7.97242 12.2217 8.53053 13.6687 9.20405 15.1319C8.52182 16.6168 7.95578 18.0868 7.52615 19.487C7.23687 19.4038 6.9566 19.3163 6.68693 19.2242ZM8.33094 8.03354C7.69197 4.76802 8.11634 2.30464 9.1842 1.68649C10.3217 1.02798 12.8369 1.96688 15.4879 4.32078C15.6574 4.47124 15.8275 4.62871 15.9981 4.79163C15.0102 5.85235 14.0341 7.05996 13.1017 8.3759C11.5026 8.52411 9.97199 8.76219 8.56467 9.08101C8.47619 8.72509 8.39781 8.37541 8.33094 8.03354ZM22.997 11.655C22.6606 11.0739 22.3152 10.5065 21.9631 9.95461C23.0479 10.0917 24.0873 10.2738 25.0633 10.4966C24.7703 11.4357 24.4051 12.4176 23.9751 13.4243C23.6667 12.8387 23.3405 12.2484 22.997 11.655ZM17.0162 5.82966C17.6862 6.55547 18.3571 7.36583 19.017 8.24505C18.352 8.21364 17.6788 8.1973 17 8.1973C16.3276 8.1973 15.6594 8.21328 14.9985 8.24415C15.6591 7.37309 16.3358 6.56382 17.0162 5.82966ZM10.9971 11.665C10.6611 12.2478 10.3409 12.8349 10.0373 13.4232C9.61438 12.4201 9.25253 11.4336 8.95695 10.4812C9.92702 10.2641 10.9615 10.0866 12.0394 9.95207C11.6823 10.509 11.3341 11.0807 10.9971 11.665ZM12.0704 20.3446C10.9568 20.2204 9.90675 20.052 8.93692 19.8409C9.23722 18.8714 9.60705 17.864 10.039 16.8393C10.3433 17.4271 10.6648 18.0145 11.0029 18.5985C11.3473 19.1935 11.7042 19.7763 12.0704 20.3446ZM17.0564 24.4658C16.368 23.723 15.6813 22.9014 15.0107 22.0177C15.6617 22.0432 16.3254 22.0563 17 22.0563C17.693 22.0563 18.3781 22.0407 19.0524 22.0106C18.3903 22.9103 17.7218 23.7332 17.0564 24.4658ZM23.989 16.787C24.4434 17.8228 24.8265 18.825 25.1307 19.778C24.1449 20.0028 23.0805 20.184 21.9591 20.3186C22.312 19.7593 22.6605 19.1821 23.0028 18.5885C23.3492 17.9879 23.678 17.3864 23.989 16.787ZM21.7447 17.8629C21.2132 18.7844 20.6675 19.6641 20.1136 20.4945C19.1047 20.5667 18.0624 20.6038 17 20.6038C15.9419 20.6038 14.9127 20.5709 13.9217 20.5066C13.3454 19.6653 12.7879 18.783 12.2598 17.8708C11.7331 16.9611 11.2485 16.0437 10.8092 15.1314C11.2483 14.217 11.7318 13.2986 12.2555 12.3905L12.2554 12.3906C12.7805 11.4801 13.3331 10.6021 13.904 9.76609C14.9152 9.68965 15.952 9.64977 16.9999 9.64977C18.0526 9.64977 19.0908 9.68996 20.1017 9.76706C20.6639 10.597 21.2128 11.4721 21.7399 12.3828C22.273 13.3036 22.7627 14.216 23.2056 15.1108C22.7641 16.0209 22.2754 16.9424 21.7447 17.8629ZM24.7409 1.64328C25.8795 2.29985 26.3222 4.94783 25.6069 8.42014C25.5613 8.6417 25.5099 8.86738 25.4541 9.09608C24.0435 8.7706 22.5118 8.52841 20.908 8.37795C19.9738 7.04755 19.0057 5.83807 18.0339 4.79096C18.2952 4.53962 18.5561 4.29997 18.8159 4.0738C21.326 1.88935 23.672 1.02689 24.7409 1.64328ZM17 12.0604C18.6768 12.0604 20.0361 13.4197 20.0361 15.0965C20.0361 16.7733 18.6768 18.1326 17 18.1326C15.3232 18.1326 13.9639 16.7733 13.9639 15.0965C13.9639 13.4197 15.3232 12.0604 17 12.0604Z" fill="#00D8FF"/>
</svg>
